<mxfile host="app.diagrams.net" modified="2023-12-23T15:31:15.839Z" agent="Mozilla/5.0 (Macintosh; Intel Mac OS X 10_15_7) AppleWebKit/537.36 (KHTML, like Gecko) Chrome/120.0.0.0 Safari/537.36" version="22.1.11" etag="5jL0gb6ZbZyHuWm1hJsW" type="github">
  <diagram name="Page-1" id="kQXjRFOBCOE8R0PYiwLl">
    <mxGraphModel>
      <root>
        <mxCell id="0" />
        <mxCell id="1" parent="0" />
      </root>
    </mxGraphModel>
  </diagram>
</mxfile>
